# xmcd CD database file
#
# Track frame offsets:
#	150
#	15107
#	36510
#	59980
#	81663
#	105146
#	130169
#
# Disc length: 2059 seconds
#
# Revision: 0
# Processed by: cddbd v1.5.1PL2 Copyright (c) Steve Scherf et al.
# Submitted via: CDex 1.51
#
DISCID=57080907
DTITLE=橋本みゆき - 紫盤
DYEAR=2006
DGENRE=Game
TTITLE0=L
TTITLE1=Confession
TTITLE2=秋色
TTITLE3=Growth
TTITLE4=秋空の向こう
TTITLE5=Destiny
TTITLE6=wintry breeze
EXTD=YEAR: 2006
EXTT0=
EXTT1=
EXTT2=
EXTT3=
EXTT4=
EXTT5=
EXTT6=
PLAYORDER=
